HIERARCHY
ROOT mixamorig:Hips
{
  OFFSET 0.000000 0.000000 0.000000
  CHANNELS 6 Xposition Yposition Zposition Xrotation Yrotation Zrotation
  JOINT mixamorig:Spine
  {
    OFFSET 1.732926 25.370933 -4.249398
    CHANNELS 3 Xrotation Yrotation Zrotation
    JOINT mixamorig:Spine2
    {
      OFFSET 1.732926 25.370933 -4.249398
      CHANNELS 3 Xrotation Yrotation Zrotation
      JOINT mixamorig:Neck
      {
        OFFSET 0.000000 4.323645 0.000000
        CHANNELS 3 Xrotation Yrotation Zrotation
        JOINT mixamorig:Head
        {
          OFFSET 0.000000 4.969105 0.000000
          CHANNELS 3 Xrotation Yrotation Zrotation
          End Site
          {
            OFFSET 0.000000 1.490731 0.000000
          }
        }
      }
      JOINT mixamorig:LeftShoulder
      {
        OFFSET 15.875986 2.816427 -1.102538
        CHANNELS 3 Xrotation Yrotation Zrotation
        JOINT mixamorig:LeftArm
        {
          OFFSET 10.000000 -2.000000 0.000000
          CHANNELS 3 Xrotation Yrotation Zrotation
          JOINT mixamorig:LeftForeArm
          {
            OFFSET 23.483627 0.000000 0.000000
            CHANNELS 3 Xrotation Yrotation Zrotation
            JOINT mixamorig:LeftHand
            {
              OFFSET 28.348658 0.000000 0.000000
              CHANNELS 3 Xrotation Yrotation Zrotation
              End Site
              {
                OFFSET 8.504597 0.000000 0.000000
              }
            }
          }
        }
      }
      JOINT mixamorig:RightShoulder
      {
        OFFSET -15.875986 2.816427 1.102538
        CHANNELS 3 Xrotation Yrotation Zrotation
        JOINT mixamorig:RightArm
        {
          OFFSET -10.000000 -2.000000 0.000000
          CHANNELS 3 Xrotation Yrotation Zrotation
          JOINT mixamorig:RightForeArm
          {
            OFFSET -23.483627 0.000000 0.000000
            CHANNELS 3 Xrotation Yrotation Zrotation
            JOINT mixamorig:RightHand
            {
              OFFSET -28.348658 0.000000 0.000000
              CHANNELS 3 Xrotation Yrotation Zrotation
              End Site
              {
                OFFSET -8.504597 0.000000 0.000000
              }
            }
          }
        }
      }
    }
  }
  JOINT mixamorig:LeftUpLeg
  {
    OFFSET 9.009130 0.240009 2.918148
    CHANNELS 3 Xrotation Yrotation Zrotation
    JOINT mixamorig:LeftLeg
    {
      OFFSET 0.809956 -37.788772 -1.789155
      CHANNELS 3 Xrotation Yrotation Zrotation
      JOINT mixamorig:LeftFoot
      {
        OFFSET -0.901959 -37.488174 20.026946
        CHANNELS 3 Xrotation Yrotation Zrotation
        JOINT mixamorig:LeftToeBase
        {
          OFFSET 4.525492 -4.437166 -6.277901
          CHANNELS 3 Xrotation Yrotation Zrotation
          End Site
          {
            OFFSET 1.357648 -1.331150 -1.883370
          }
        }
      }
    }
  }
  JOINT mixamorig:RightUpLeg
  {
    OFFSET -9.009130 -0.240009 -2.918148
    CHANNELS 3 Xrotation Yrotation Zrotation
    JOINT mixamorig:RightLeg
    {
      OFFSET 3.877963 -37.466685 3.613488
      CHANNELS 3 Xrotation Yrotation Zrotation
      JOINT mixamorig:RightFoot
      {
        OFFSET -3.942954 -38.810233 16.895983
        CHANNELS 3 Xrotation Yrotation Zrotation
        JOINT mixamorig:RightToeBase
        {
          OFFSET -3.665792 -0.881179 -8.084928
          CHANNELS 3 Xrotation Yrotation Zrotation
          End Site
          {
            OFFSET -1.099738 -0.264354 -2.425478
          }
        }
      }
    }
  }
}
MOTION
Frames: 9
Frame Time: 0.041667
0.040865 0.272236 0.000000 8.728084 -0.592999 -0.035869 0.001004 0.014709 0.088230 -9.028446 7.072501 0.055451 5.234776 -1.068782 7.970860 5.032921 -1.787250 7.904350 0.000000 0.000000 0.000000 -0.920238 23.041683 -3.036759 73.900048 52.562250 115.523546 0.000000 0.000000 0.000000 0.000000 0.000000 0.000000 -5.949296 -37.969623 11.976335 51.473638 -37.593677 -114.083732 0.000000 0.000000 0.000000 -8.831273 -0.194071 -0.144810 0.413955 0.404262 0.786259 -0.165122 0.465846 -0.448129 0.000000 0.000000 0.000000 -8.399726 -0.835068 0.245260 0.221974 0.288488 0.722568 -1.268031 1.447702 0.402920 0.000000 0.000000 0.000000
0.079981 0.273074 0.000000 8.759386 -0.595128 -0.036273 0.001013 0.014830 0.088953 -9.047514 6.792388 0.047690 5.242112 -0.895178 7.927197 5.065850 -1.612221 7.876523 0.000000 0.000000 0.000000 -0.981549 23.161876 -1.873202 70.162055 52.399429 112.607136 0.000000 0.000000 0.000000 0.000000 0.000000 0.000000 -6.865870 -38.516409 13.157408 48.540006 -37.996061 -110.508006 0.000000 0.000000 0.000000 -8.841564 -0.194521 -0.137067 0.360271 0.406505 0.788142 -0.194368 0.527658 -0.513478 0.000000 0.000000 0.000000 -8.444032 -0.838191 0.254561 0.186317 0.275903 0.685541 -1.110867 1.501897 0.325179 0.000000 0.000000 0.000000
0.153567 0.274981 0.000000 9.369184 -0.633317 -0.004544 0.001163 0.016990 0.101915 -8.826841 10.011158 -0.092628 4.966294 -1.095233 7.739642 4.767314 -1.757095 7.668823 0.000000 0.000000 0.000000 1.260469 13.594867 15.643719 31.826687 16.000167 119.213967 0.000000 0.000000 0.000000 0.000000 0.000000 0.000000 1.401630 -20.488476 -11.285284 16.235801 -6.268496 -123.508264 0.000000 0.000000 0.000000 -9.567729 -0.229133 -0.634813 0.876923 0.880396 1.717684 -0.792357 0.683764 -1.062271 0.000000 0.000000 0.000000 -8.712390 -0.905626 0.027651 0.779681 0.482215 1.312602 -3.073189 2.177293 1.109717 0.000000 0.000000 0.000000
0.212106 0.276531 0.000000 10.190556 -0.680041 0.107245 0.001392 0.020070 0.120397 -8.817022 10.151793 -0.341771 4.980085 -0.462012 7.467315 4.877315 -1.106516 7.453792 0.000000 0.000000 0.000000 2.511761 7.576729 37.960783 -12.815946 -11.443488 102.663415 0.000000 0.000000 0.000000 0.000000 0.000000 0.000000 2.243842 -10.414178 -26.839980 -16.153941 11.805212 -107.491291 0.000000 0.000000 0.000000 -10.334396 -0.271772 -1.141843 0.761336 1.350485 2.598676 -1.596801 1.199693 -2.021961 0.000000 0.000000 0.000000 -9.029343 -0.966899 -0.131729 0.334410 0.601573 1.470200 -3.083424 3.169691 0.985465 0.000000 0.000000 0.000000
0.248349 0.276343 0.000000 10.788125 -0.704247 0.326652 0.001600 0.022434 0.134597 -8.872909 9.347010 -0.631758 5.250423 -0.543976 7.613151 5.131501 -1.235842 7.593783 0.000000 0.000000 0.000000 3.319217 6.534133 52.602815 -18.086989 -18.663387 86.443590 0.000000 0.000000 0.000000 0.000000 0.000000 0.000000 3.171711 -8.139107 -40.889907 -11.015422 9.854340 -90.731343 0.000000 0.000000 0.000000 -10.895140 -0.315094 -1.707163 0.412462 1.744360 3.309095 -2.098244 1.714615 -2.759333 0.000000 0.000000 0.000000 -8.697514 -0.969870 -0.356757 -1.300668 0.771814 1.418852 -2.065334 3.793617 0.462530 0.000000 0.000000 0.000000
0.293045 0.275313 0.000000 10.586660 -0.680577 0.452883 0.001565 0.021704 0.130220 -8.789938 10.521655 -0.749128 5.221237 -0.605969 7.925809 5.083446 -1.320691 7.901194 0.000000 0.000000 0.000000 4.515889 7.611125 61.281400 -10.368278 -12.728733 76.007684 0.000000 0.000000 0.000000 0.000000 0.000000 0.000000 6.666857 -13.626288 -48.435670 1.582596 -3.785870 -78.765310 0.000000 0.000000 0.000000 -11.058019 -0.334760 -1.993531 0.790110 1.881714 3.608740 -2.077897 2.811770 -3.520376 0.000000 0.000000 0.000000 -7.890525 -0.948879 -0.757879 -2.328458 0.976501 1.602254 -1.913155 3.700787 0.411425 0.000000 0.000000 0.000000
0.341750 0.275948 0.000000 9.463978 -0.599146 0.475247 0.001185 0.017542 0.105219 -8.540514 14.034333 -0.635511 5.142093 -1.294390 8.493642 4.885527 -2.043888 8.404784 0.000000 0.000000 0.000000 4.060725 6.294657 66.366708 -5.098558 -7.643252 67.910177 0.000000 0.000000 0.000000 0.000000 0.000000 0.000000 14.075709 -24.950878 -57.038022 13.295811 -21.405143 -64.662784 0.000000 0.000000 0.000000 -11.496717 -0.340169 -1.821355 2.839079 1.600904 3.277834 -3.231721 4.450580 -5.570615 0.000000 0.000000 0.000000 -7.215825 -0.954337 -1.255774 -1.457922 1.017447 1.922788 -3.612674 3.216076 1.215023 0.000000 0.000000 0.000000
0.372325 0.277910 0.000000 7.958979 -0.498959 0.411617 0.000732 0.012252 0.073446 -8.308687 17.261249 -0.293932 5.221058 -2.134231 8.661239 4.830360 -2.905138 8.495609 0.000000 0.000000 0.000000 1.995787 2.838514 69.445501 -5.670552 -9.021827 60.432157 0.000000 0.000000 0.000000 0.000000 0.000000 0.000000 19.884799 -30.398373 -65.583094 12.854330 -27.835246 -49.950705 0.000000 0.000000 0.000000 -12.695253 -0.337716 -1.090991 6.537004 0.876821 2.190782 -5.374777 5.957716 -8.329265 0.000000 0.000000 0.000000 -6.726670 -0.946210 -1.566010 0.294925 0.857644 2.048032 -5.907739 2.115386 2.376231 0.000000 0.000000 0.000000
0.521473 0.278600 0.000000 7.532147 -0.490341 0.187354 0.000707 0.010973 0.065804 -8.379552 16.292478 0.049264 5.491115 -1.968540 8.266451 5.145046 -2.751339 8.124570 0.000000 0.000000 0.000000 2.941317 3.873411 73.044103 -2.227803 -3.344248 49.544887 0.000000 0.000000 0.000000 0.000000 0.000000 0.000000 21.923859 -30.300464 -71.094782 11.332311 -33.514605 -37.658323 0.000000 0.000000 0.000000 -13.292752 -0.284482 -0.006899 8.103764 0.136373 0.718416 -6.803032 7.251195 -10.393784 0.000000 0.000000 0.000000 -6.380524 -0.942783 -1.831297 0.549399 0.998433 2.437006 -7.047490 1.218501 3.021931 0.000000 0.000000 0.000000
